<svg width="18" height="18" viewBox="0 0 18 18" fill="none" xmlns="http://www.w3.org/2000/svg">
    <path opacity="0.2" d="M17.1 9.89998C17.1 10.7273 16.937 11.5465 16.6204 12.3109C16.3038 13.0752 15.8398 13.7697 15.2548 14.3547C14.6698 14.9398 13.9753 15.4038 13.2109 15.7204C12.4466 16.037 11.6273 16.2 10.8 16.2C9.97267 16.2 9.15345 16.037 8.38909 15.7204C7.62474 15.4038 6.93024 14.9398 6.34523 14.3547C5.76022 13.7697 5.29616 13.0752 4.97956 12.3109C4.66295 11.5465 4.5 10.7273 4.5 9.89998C4.5 8.22911 5.16375 6.62668 6.34523 5.4452C7.52671 4.26372 9.12914 3.59998 10.8 3.59998C12.4709 3.59998 14.0733 4.26372 15.2548 5.4452C16.4363 6.62668 17.1 8.22911 17.1 9.89998Z" fill="#FF214F" fill-opacity="0.5"/>
    <path fill-rule="evenodd" clip-rule="evenodd" d="M9 2.7C9 2.58065 9.04741 2.46619 9.1318 2.3818C9.21619 2.29741 9.33065 2.25 9.45 2.25C10.785 2.25 12.0901 2.64588 13.2001 3.38758C14.3101 4.12928 15.1753 5.18349 15.6862 6.41689C16.1971 7.65029 16.3308 9.00749 16.0703 10.3169C15.8099 11.6262 15.167 12.829 14.223 13.773C13.279 14.717 12.0762 15.3599 10.7669 15.6203C9.45749 15.8808 8.10029 15.7471 6.86689 15.2362C5.63349 14.7253 4.57928 13.8601 3.83758 12.7501C3.09588 11.6401 2.7 10.335 2.7 9C2.7 8.88065 2.74741 8.76619 2.8318 8.6818C2.91619 8.59741 3.03065 8.55 3.15 8.55C3.26935 8.55 3.38381 8.59741 3.4682 8.6818C3.55259 8.76619 3.6 8.88065 3.6 9C3.6 10.157 3.9431 11.2881 4.5859 12.2501C5.22871 13.2121 6.14236 13.9619 7.2113 14.4047C8.28025 14.8475 9.45649 14.9633 10.5913 14.7376C11.7261 14.5119 12.7684 13.9547 13.5866 13.1366C14.4047 12.3184 14.9619 11.2761 15.1876 10.1413C15.4133 9.00649 15.2975 7.83025 14.8547 6.7613C14.4119 5.69235 13.6621 4.77871 12.7001 4.1359C11.7381 3.4931 10.607 3.15 9.45 3.15C9.33065 3.15 9.21619 3.10259 9.1318 3.0182C9.04741 2.93381 9 2.81935 9 2.7Z" fill="#FF214F"/>
    <path d="M7.2 2.925C7.2 3.10402 7.12888 3.27571 7.0023 3.4023C6.87571 3.52888 6.70402 3.6 6.525 3.6C6.34598 3.6 6.17429 3.52888 6.0477 3.4023C5.92112 3.27571 5.85 3.10402 5.85 2.925C5.85 2.74598 5.92112 2.57429 6.0477 2.4477C6.17429 2.32112 6.34598 2.25 6.525 2.25C6.70402 2.25 6.87571 2.32112 7.0023 2.4477C7.12888 2.57429 7.2 2.74598 7.2 2.925ZM4.95 4.275C4.95 4.45402 4.87888 4.62571 4.7523 4.7523C4.62571 4.87888 4.45402 4.95 4.275 4.95C4.09598 4.95 3.92429 4.87888 3.7977 4.7523C3.67112 4.62571 3.6 4.45402 3.6 4.275C3.6 4.09598 3.67112 3.92429 3.7977 3.7977C3.92429 3.67112 4.09598 3.6 4.275 3.6C4.45402 3.6 4.62571 3.67112 4.7523 3.7977C4.87888 3.92429 4.95 4.09598 4.95 4.275ZM3.6 6.525C3.6 6.70402 3.52888 6.87571 3.4023 7.0023C3.27571 7.12888 3.10402 7.2 2.925 7.2C2.74598 7.2 2.57429 7.12888 2.4477 7.0023C2.32112 6.87571 2.25 6.70402 2.25 6.525C2.25 6.34598 2.32112 6.17429 2.4477 6.0477C2.57429 5.92112 2.74598 5.85 2.925 5.85C3.10402 5.85 3.27571 5.92112 3.4023 6.0477C3.52888 6.17429 3.6 6.34598 3.6 6.525Z" fill="#FF214F"/>
    <path fill-rule="evenodd" clip-rule="evenodd" d="M5.3523 10.1016C5.40577 9.99492 5.41466 9.87135 5.37702 9.7581C5.33938 9.64485 5.2583 9.55118 5.1516 9.49771L3.3516 8.59771C3.24503 8.54534 3.12208 8.53721 3.00954 8.57509C2.89701 8.61298 2.804 8.69381 2.75081 8.79997C2.69761 8.90613 2.68852 9.02901 2.72554 9.14184C2.76255 9.25467 2.84266 9.34829 2.9484 9.40231L4.7484 10.3023C4.8551 10.3558 4.97866 10.3647 5.09192 10.327C5.20517 10.2894 5.29883 10.2083 5.3523 10.1016Z" fill="#FF214F"/>
    <path fill-rule="evenodd" clip-rule="evenodd" d="M3.4686 8.68138C3.51051 8.72318 3.54376 8.77284 3.56644 8.82751C3.58913 8.88218 3.60081 8.94079 3.60081 8.99998C3.60081 9.05917 3.58913 9.11778 3.56644 9.17245C3.54376 9.22712 3.51051 9.27677 3.4686 9.31858L2.1186 10.6686C2.03422 10.7531 1.91973 10.8006 1.80032 10.8007C1.68091 10.8008 1.56635 10.7534 1.48185 10.669C1.39735 10.5846 1.34984 10.4702 1.34975 10.3507C1.34967 10.2313 1.39702 10.1168 1.4814 10.0323L2.8314 8.68228C2.8732 8.64037 2.92286 8.60712 2.97753 8.58443C3.0322 8.56175 3.09081 8.55007 3.15 8.55007C3.20919 8.55007 3.2678 8.56175 3.32247 8.58443C3.37714 8.60712 3.4268 8.64037 3.4686 8.68228M9.45 5.84998C9.56935 5.84998 9.68381 5.89739 9.7682 5.98178C9.85259 6.06617 9.9 6.18063 9.9 6.29998V8.99998C9.9 9.11932 9.85259 9.23378 9.7682 9.31817C9.68381 9.40257 9.56935 9.44998 9.45 9.44998C9.33065 9.44998 9.21619 9.40257 9.1318 9.31817C9.04741 9.23378 9 9.11932 9 8.99998V6.29998C9 6.18063 9.04741 6.06617 9.1318 5.98178C9.21619 5.89739 9.33065 5.84998 9.45 5.84998Z" fill="#FF214F"/>
    <path fill-rule="evenodd" clip-rule="evenodd" d="M12.6 8.99999C12.6 9.11934 12.5526 9.23379 12.4682 9.31819C12.3838 9.40258 12.2693 9.44999 12.15 9.44999H9.45C9.33065 9.44999 9.21619 9.40258 9.1318 9.31819C9.04741 9.23379 9 9.11934 9 8.99999C9 8.88064 9.04741 8.76618 9.1318 8.68179C9.21619 8.5974 9.33065 8.54999 9.45 8.54999H12.15C12.2693 8.54999 12.3838 8.5974 12.4682 8.68179C12.5526 8.76618 12.6 8.88064 12.6 8.99999Z" fill="#FF214F"/>
</svg>
