<svg width="100" height="18" viewBox="0 0 100 18" fill="none" xmlns="http://www.w3.org/2000/svg">
    <path fill-rule="evenodd" clip-rule="evenodd" d="M95.098 10.48C95.098 10.8973 95.0389 11.2493 94.9233 11.5317C94.8078 11.8241 94.6524 12.0568 94.4557 12.2428C94.2631 12.423 94.021 12.5621 93.7281 12.6558C93.4351 12.7509 93.083 12.7991 92.6745 12.7991C92.3251 12.7991 91.8534 12.819 91.2619 12.8616C90.676 12.9027 90.2551 12.924 90.0076 12.924C88.5868 12.924 87.4795 12.8644 86.6901 12.7438C85.4357 12.5224 84.858 11.8156 84.8442 10.4899V7.17165C84.8442 6.31866 85.0643 5.69134 85.4976 5.2542C85.9267 4.81989 86.5525 4.59423 87.3929 4.59423H92.5507C94.2865 4.76596 95.0842 5.58205 95.098 7.16597V10.48ZM99.9519 7.34622C99.9202 6.72883 99.8748 6.09441 99.8102 5.4387C99.6892 4.52468 99.5172 3.73414 99.2889 3.05998C99.0812 2.53626 98.7951 2.075 98.4238 1.67476C97.9479 1.18227 97.3977 0.844475 96.7774 0.661387C96.1722 0.482557 95.6894 0.361918 95.3208 0.295211C94.7734 0.193023 94.2274 0.13909 93.6854 0.13909C93.3498 0.13909 92.5617 0.106446 91.3348 0.0425786C90.8081 0.0156121 90.3569 0 89.9746 0C89.5991 0 88.9994 0.0241279 88.1755 0.0709643C87.3558 0.114962 86.7162 0.13909 86.2595 0.13909C85.1743 0.13909 84.2102 0.285276 83.3725 0.579069C82.6353 0.844475 82.0205 1.20781 81.5267 1.66766L81.5295 1.66908C80.447 2.68245 79.9519 5.15768 79.9436 9.13027C79.9436 10.1692 79.9876 11.1527 80.0674 12.0767C80.2049 13.5826 80.535 14.7237 81.0783 15.4958C81.7014 16.3417 82.7165 16.898 84.1084 17.1833C84.7342 17.3054 85.6048 17.3877 86.7272 17.4345C87.8495 17.4813 89.2717 17.5041 90.9882 17.5041C91.3266 17.497 91.6759 17.487 92.0377 17.4785C92.3953 17.4686 92.7694 17.4629 93.1587 17.4629C93.4599 17.4629 93.7817 17.4416 94.1146 17.399C94.4419 17.3579 94.7734 17.3181 95.0952 17.2812C96.7829 17.0541 97.9589 16.5716 98.615 15.7995C99.315 14.9877 99.7345 13.7458 99.89 12.081C99.9656 11.3287 100 10.3835 100 9.24097C100 8.59661 99.9849 7.96503 99.9519 7.34622ZM70.2785 0.31792L70.2111 0.215731L63.5651 4.78583L65.8951 8.5512L71.4738 4.41824V17.3096H76.3744V0.194442H70.2785V0.31792ZM62.3465 0.265406H55.523L50.3968 6.13415L45.3009 0.265406H38.399L46.1523 8.72435L37.9726 17.3096H45.0162L50.3968 11.2407L55.7266 17.3096H62.8664L54.6414 8.72293L62.3465 0.265406ZM31.5329 10.4786C31.5329 10.8973 31.471 11.2493 31.3582 11.5331C31.2399 11.8227 31.0873 12.0568 30.8906 12.2399C30.6953 12.4244 30.456 12.5635 30.1602 12.6558C29.8645 12.7494 29.5152 12.8005 29.1067 12.8005C28.7587 12.8005 28.2883 12.8204 27.6969 12.8616C27.1082 12.9041 26.6873 12.924 26.4425 12.924C25.0189 12.924 23.9089 12.8644 23.1222 12.7423C21.8706 12.5224 21.2929 11.8141 21.2791 10.4885V7.17023C21.2819 6.32008 21.4992 5.69134 21.9297 5.25703C22.3588 4.81989 22.9847 4.59565 23.8292 4.59423H28.9843C30.7187 4.76738 31.5164 5.58347 31.5329 7.16739V10.4786ZM36.2423 5.4387C36.1268 4.52468 35.9494 3.73272 35.7211 3.05998C35.5175 2.53626 35.2273 2.07642 34.8532 1.67476C34.38 1.18368 33.8271 0.844475 33.2095 0.661387C32.6044 0.483976 32.1216 0.361918 31.753 0.295211C31.2056 0.191604 30.6623 0.140509 30.1203 0.140509C29.782 0.140509 28.9966 0.106446 27.767 0.0425786C27.2402 0.0141929 26.7863 0 26.4053 0C26.0312 0 25.4329 0.0227086 24.6077 0.069545C23.7879 0.116381 23.1456 0.140509 22.6917 0.140509C21.6037 0.140509 20.6423 0.285276 19.8074 0.579069C19.0716 0.844475 18.4527 1.20639 17.9616 1.66766C16.8792 2.68103 16.384 5.15485 16.3771 9.13027C16.3771 10.1678 16.417 11.1513 16.4996 12.0781C16.6371 13.5826 16.9672 14.7222 17.5132 15.4958C18.1336 16.3431 19.1486 16.898 20.5405 17.1819C21.1664 17.3054 22.037 17.3891 23.1593 17.4345C24.2831 17.4813 25.7039 17.5055 27.4231 17.5055C27.7588 17.497 28.1081 17.487 28.4685 17.4785C28.8275 17.4671 29.2043 17.4629 29.5936 17.4629C29.8948 17.4629 30.2139 17.4416 30.5495 17.4004C30.8782 17.3593 31.2056 17.3167 31.5274 17.2812C33.215 17.0556 34.391 16.5702 35.0499 15.7981C35.7513 14.9877 36.1695 13.7444 36.3235 12.0781C36.3978 11.3287 36.4335 10.3821 36.4335 9.24239C36.4335 8.59519 36.417 7.96503 36.384 7.34764C36.3551 6.72883 36.3042 6.09441 36.2423 5.4387ZM6.70793 0.31792L6.64328 0.215731L0 4.78725L2.32446 8.54836L7.90592 4.41824V17.3096H12.8065V0.197281H6.70793V0.31792Z" fill="black"/>
</svg>
