<svg width="12" height="12" viewBox="0 0 12 12" fill="none" xmlns="http://www.w3.org/2000/svg">
<path d="M7.34942 4.31811L7.46856 4.54568L7.72294 4.58136L10.8374 5.01818L8.5981 7.09003L8.39963 7.27367L8.44465 7.5403L8.91212 10.3084L8.91425 10.321L8.91703 10.3335C8.9288 10.3865 8.93674 10.4325 8.94172 10.4718C8.9008 10.4592 8.85352 10.4421 8.79959 10.4195L6.22204 9.08883L5.99163 8.96987L5.76166 9.08968L3.2083 10.4199C3.15471 10.4423 3.1077 10.4593 3.06699 10.4718C3.07197 10.4325 3.07991 10.3865 3.09168 10.3335L3.09446 10.321L3.09659 10.3084L3.56406 7.5403L3.60908 7.27367L3.41061 7.09003L1.17136 5.01818L4.28576 4.58136L4.54214 4.5454L4.66075 4.31529L5.99393 1.72888L7.34942 4.31811ZM0.994394 4.8732C0.994407 4.8732 0.994543 4.87347 0.994767 4.87401L0.994394 4.8732Z" stroke="#F99600"/>
</svg>
