<svg width="48" height="48" viewBox="0 0 48 48" fill="none" xmlns="http://www.w3.org/2000/svg">
    <g clip-path="url(#clip0_62_1788)">
        <g filter="url(#filter0_d_62_1788)">
            <path fill-rule="evenodd" clip-rule="evenodd" d="M24 4C14.0589 4 6 12.0589 6 22C6 31.9411 14.0589 40 24 40C33.9411 40 42 31.9411 42 22C42 12.0589 33.9411 4 24 4ZM31 27V20.0292C31 19.3833 30.6881 18.7772 30.1625 18.4018L25.1625 14.8303C24.4671 14.3336 23.5329 14.3336 22.8375 14.8303L17.8375 18.4018C17.3119 18.7772 17 19.3833 17 20.0292V27C17 28.1046 17.8954 29 19 29H29C30.1046 29 31 28.1046 31 27Z" fill="url(#paint0_linear_62_1788)"/>
        </g>
    </g>
    <defs>
        <filter id="filter0_d_62_1788" x="2" y="4" width="44" height="44" filterUnits="userSpaceOnUse" color-interpolation-filters="sRGB">
            <feFlood flood-opacity="0" result="BackgroundImageFix"/>
            <feColorMatrix in="SourceAlpha" type="matrix" values="0 0 0 0 0 0 0 0 0 0 0 0 0 0 0 0 0 0 127 0" result="hardAlpha"/>
            <feOffset dy="4"/>
            <feGaussianBlur stdDeviation="2"/>
            <feColorMatrix type="matrix" values="0 0 0 0 1 0 0 0 0 0.129412 0 0 0 0 0.309804 0 0 0 0.1 0"/>
            <feBlend mode="normal" in2="BackgroundImageFix" result="effect1_dropShadow_62_1788"/>
            <feBlend mode="normal" in="SourceGraphic" in2="effect1_dropShadow_62_1788" result="shape"/>
        </filter>
        <linearGradient id="paint0_linear_62_1788" x1="4" y1="2" x2="4" y2="42" gradientUnits="userSpaceOnUse">
            <stop stop-color="#FF214F"/>
            <stop offset="1" stop-color="#FF7B96"/>
        </linearGradient>
        <clipPath id="clip0_62_1788">
            <rect width="36" height="40" fill="white" transform="translate(6 4)"/>
        </clipPath>
    </defs>
</svg>
