<svg width="18" height="22" viewBox="0 0 18 22" fill="none" xmlns="http://www.w3.org/2000/svg">
    <path d="M6.30859 3.07031V0.414062H17.5977V3.07031H14.9414V14.6914C14.9414 16.0361 14.6287 17.2121 14.0034 18.2192C13.3781 19.2209 12.4899 19.9901 11.3389 20.5269C10.1878 21.0636 8.8431 21.332 7.30469 21.332C6.67383 21.332 6.0485 21.2739 5.42871 21.1577C4.80892 21.0415 4.18636 20.8423 3.56104 20.5601C2.94124 20.2723 2.39339 19.9209 1.91748 19.5059C1.4471 19.0853 1.06527 18.5485 0.771973 17.8955C0.478678 17.237 0.332031 16.501 0.332031 15.6875C0.332031 14.9515 0.589355 14.3262 1.104 13.8115C1.62419 13.2913 2.25228 13.0312 2.98828 13.0312C3.72428 13.0312 4.34961 13.2913 4.86426 13.8115C5.38444 14.3262 5.64453 14.9515 5.64453 15.6875C5.64453 16.2132 5.50342 16.6919 5.22119 17.1235C4.9445 17.5552 4.5765 17.8789 4.11719 18.0947C4.68164 18.4821 5.41211 18.6758 6.30859 18.6758C6.7347 18.6758 7.14144 18.5928 7.52881 18.4268C7.92171 18.2552 8.27588 18.009 8.59131 17.688C8.90674 17.367 9.15853 16.9492 9.34668 16.4346C9.53483 15.9144 9.62891 15.3333 9.62891 14.6914V3.07031H6.30859Z" fill="black"/>
</svg>
